<?xml version="1.0" encoding="utf-8"?>
<!DOCTYPE svg
  PUBLIC '-//W3C//DTD SVG 1.0//EN'
  'http://www.w3.org/TR/2001/REC-SVG-20010904/DTD/svg10.dtd'>
<svg width="518.0" height="112" preserveAspectRatio="xMinYMin meet" viewBox="0 0 518 112" xmlns="http://www.w3.org/2000/svg" version="1.0" fill-rule="evenodd" xmlns:xlink="http://www.w3.org/1999/xlink">
	<title>...</title>
	<desc>...</desc>
	<clipPath id="clip">
		<rect x="0" y="0" width="518.0" height="112"/>
	</clipPath>
	<g id="group" transform="scale(1,-1) translate(0,-112)" style="clip-path: url(#clip)">
		<g transform="">
			<text x="4" y="101" style="font-family: DejaVu Sans, sans-serif; font-weight: bold; font-size: 8.2px;fill: rgb(9%,12%,15%); stroke:none;" transform="translate(0,202) scale(1,-1)">Con repetición: una fila compartida</text>
			<text x="270" y="101" style="font-family: DejaVu Sans, sans-serif; font-weight: bold; font-size: 8.2px;fill: rgb(9%,12%,15%); stroke:none;" transform="translate(0,202) scale(1,-1)">Con filas construidas por separado</text>
			<path d="M 258,6 L 258,103 Z" style="stroke: rgb(74%,77%,79%); stroke-linecap: butt; stroke-width: 0.5;"/>
			<rect x="4" y="18" width="65" height="65" rx="2" ry="2" style="stroke: rgb(9%,12%,15%); stroke-linecap: butt; stroke-width: 0.65; fill: rgb(100%,100%,100%); fill-rule: evenodd;"/>
			<text x="23.4609375" y="62.5" style="font-family: DejaVu Sans, sans-serif; font-size: 8px;fill: rgb(9%,12%,15%); stroke:none;" transform="translate(0,125) scale(1,-1)">matrix</text>
			<text x="30.833984375" y="52.5" style="font-family: DejaVu Sans, sans-serif; font-size: 8px;fill: rgb(9%,12%,15%); stroke:none;" transform="translate(0,105) scale(1,-1)">[0]</text>
			<text x="30.833984375" y="42.5" style="font-family: DejaVu Sans, sans-serif; font-size: 8px;fill: rgb(9%,12%,15%); stroke:none;" transform="translate(0,85) scale(1,-1)">[1]</text>
			<text x="30.833984375" y="32.5" style="font-family: DejaVu Sans, sans-serif; font-size: 8px;fill: rgb(9%,12%,15%); stroke:none;" transform="translate(0,65) scale(1,-1)">[2]</text>
			<rect x="268" y="18" width="65" height="65" rx="2" ry="2" style="stroke: rgb(9%,12%,15%); stroke-linecap: butt; stroke-width: 0.65; fill: rgb(100%,100%,100%); fill-rule: evenodd;"/>
			<text x="287.4609375" y="62.5" style="font-family: DejaVu Sans, sans-serif; font-size: 8px;fill: rgb(9%,12%,15%); stroke:none;" transform="translate(0,125) scale(1,-1)">matrix</text>
			<text x="294.833984375" y="52.5" style="font-family: DejaVu Sans, sans-serif; font-size: 8px;fill: rgb(9%,12%,15%); stroke:none;" transform="translate(0,105) scale(1,-1)">[0]</text>
			<text x="294.833984375" y="42.5" style="font-family: DejaVu Sans, sans-serif; font-size: 8px;fill: rgb(9%,12%,15%); stroke:none;" transform="translate(0,85) scale(1,-1)">[1]</text>
			<text x="294.833984375" y="32.5" style="font-family: DejaVu Sans, sans-serif; font-size: 8px;fill: rgb(9%,12%,15%); stroke:none;" transform="translate(0,65) scale(1,-1)">[2]</text>
			<rect x="116" y="33" width="129" height="38" rx="2" ry="2" style="stroke: rgb(9%,12%,15%); stroke-linecap: butt; stroke-width: 0.65; fill: rgb(100%,100%,100%); fill-rule: evenodd;"/>
			<text x="170.41015625" y="54.0" style="font-family: DejaVu Sans, sans-serif; font-size: 8px;fill: rgb(9%,12%,15%); stroke:none;" transform="translate(0,108) scale(1,-1)">fila A</text>
			<text x="164.658203125" y="44.0" style="font-family: DejaVu Sans, sans-serif; font-size: 8px;fill: rgb(9%,12%,15%); stroke:none;" transform="translate(0,88) scale(1,-1)">[1, 0, 0]</text>
			<path d="M 69,58 L 116,58 Z" style="stroke: rgb(9%,12%,15%); stroke-linecap: butt; stroke-width: 0.8;"/>
			<polygon points="116 58, 111 60.2, 111 55.8" style="stroke: rgb(9%,12%,15%); stroke-linecap: butt; stroke-width: 1; fill: rgb(9%,12%,15%); fill-rule: evenodd;"/>
			<path d="M 69,47 L 116,47 Z" style="stroke: rgb(9%,12%,15%); stroke-linecap: butt; stroke-width: 0.8;"/>
			<polygon points="116 47, 111 49.2, 111 44.8" style="stroke: rgb(9%,12%,15%); stroke-linecap: butt; stroke-width: 1; fill: rgb(9%,12%,15%); fill-rule: evenodd;"/>
			<path d="M 69,36 L 116,36 Z" style="stroke: rgb(9%,12%,15%); stroke-linecap: butt; stroke-width: 0.8;"/>
			<polygon points="116 36, 111 38.2, 111 33.8" style="stroke: rgb(9%,12%,15%); stroke-linecap: butt; stroke-width: 1; fill: rgb(9%,12%,15%); fill-rule: evenodd;"/>
			<rect x="382" y="66" width="126" height="23" rx="2" ry="2" style="stroke: rgb(9%,12%,15%); stroke-linecap: butt; stroke-width: 0.65; fill: rgb(100%,100%,100%); fill-rule: evenodd;"/>
			<text x="423.802734375" y="74.5" style="font-family: DejaVu Sans, sans-serif; font-size: 8px;fill: rgb(9%,12%,15%); stroke:none;" transform="translate(0,149) scale(1,-1)">A: [1, 0, 0]</text>
			<rect x="382" y="38" width="126" height="23" rx="2" ry="2" style="stroke: rgb(9%,12%,15%); stroke-linecap: butt; stroke-width: 0.65; fill: rgb(100%,100%,100%); fill-rule: evenodd;"/>
			<text x="423.794921875" y="46.5" style="font-family: DejaVu Sans, sans-serif; font-size: 8px;fill: rgb(9%,12%,15%); stroke:none;" transform="translate(0,93) scale(1,-1)">B: [0, 0, 0]</text>
			<rect x="382" y="10" width="126" height="23" rx="2" ry="2" style="stroke: rgb(9%,12%,15%); stroke-linecap: butt; stroke-width: 0.65; fill: rgb(100%,100%,100%); fill-rule: evenodd;"/>
			<text x="423.74609375" y="18.5" style="font-family: DejaVu Sans, sans-serif; font-size: 8px;fill: rgb(9%,12%,15%); stroke:none;" transform="translate(0,37) scale(1,-1)">C: [0, 0, 0]</text>
			<path d="M 333,58 L 382,77 Z" style="stroke: rgb(9%,12%,15%); stroke-linecap: butt; stroke-width: 0.8;"/>
			<polygon points="382 77, 376.5428 77.24356, 378.1336 73.14117" style="stroke: rgb(9%,12%,15%); stroke-linecap: butt; stroke-width: 1; fill: rgb(9%,12%,15%); fill-rule: evenodd;"/>
			<path d="M 333,47 L 382,49 Z" style="stroke: rgb(9%,12%,15%); stroke-linecap: butt; stroke-width: 0.8;"/>
			<polygon points="382 49, 376.9144 50.99426, 377.0939 46.59792" style="stroke: rgb(9%,12%,15%); stroke-linecap: butt; stroke-width: 1; fill: rgb(9%,12%,15%); fill-rule: evenodd;"/>
			<path d="M 333,36 L 382,21 Z" style="stroke: rgb(9%,12%,15%); stroke-linecap: butt; stroke-width: 0.8;"/>
			<polygon points="382 21, 377.863 24.56721, 376.575 20.35993" style="stroke: rgb(9%,12%,15%); stroke-linecap: butt; stroke-width: 1; fill: rgb(9%,12%,15%); fill-rule: evenodd;"/>
		</g>
	</g>
</svg>
